<svg width="41" height="41" viewBox="0 0 41 41" fill="none" xmlns="http://www.w3.org/2000/svg">
<path fill-rule="evenodd" clip-rule="evenodd" d="M-4.33337 17.3253C-4.33337 5.35386 -4.33337 -0.633438 -1.07782 -4.3509C2.17496 -8.07153 7.41385 -8.07153 17.8888 -8.07153H23.4444C33.9194 -8.07153 39.1583 -8.07153 42.4111 -4.3509C45.6666 -0.633438 45.6666 5.35386 45.6666 17.3253V23.6745C45.6666 35.6459 45.6666 41.6332 42.4111 45.3507C39.1583 49.0713 33.9194 49.0713 23.4444 49.0713H17.8888C7.41385 49.0713 2.17496 49.0713 -1.07782 45.3507C-4.33337 41.6332 -4.33337 35.6459 -4.33337 23.6745V17.3253ZM37.3333 6.21418C37.3333 7.47712 36.8943 8.68833 36.1129 9.58136C35.3315 10.4744 34.2717 10.9761 33.1666 10.9761C32.0616 10.9761 31.0017 10.4744 30.2203 9.58136C29.4389 8.68833 29 7.47712 29 6.21418C29 4.95125 29.4389 3.74004 30.2203 2.84701C31.0017 1.95398 32.0616 1.45228 33.1666 1.45228C34.2717 1.45228 35.3315 1.95398 36.1129 2.84701C36.8943 3.74004 37.3333 4.95125 37.3333 6.21418ZM26.2222 23.6745C26.2222 25.3584 25.6369 26.9734 24.595 28.1641C23.5531 29.3548 22.14 30.0237 20.6666 30.0237C19.1932 30.0237 17.7801 29.3548 16.7383 28.1641C15.6964 26.9734 15.1111 25.3584 15.1111 23.6745C15.1111 21.9906 15.6964 20.3756 16.7383 19.1849C17.7801 17.9942 19.1932 17.3253 20.6666 17.3253C22.14 17.3253 23.5531 17.9942 24.595 19.1849C25.6369 20.3756 26.2222 21.9906 26.2222 23.6745ZM31.7777 23.6745C31.7777 27.0423 30.6071 30.2722 28.5234 32.6536C26.4396 35.035 23.6135 36.3729 20.6666 36.3729C17.7198 36.3729 14.8936 35.035 12.8099 32.6536C10.7261 30.2722 9.55551 27.0423 9.55551 23.6745C9.55551 20.3067 10.7261 17.0768 12.8099 14.6954C14.8936 12.314 17.7198 10.9761 20.6666 10.9761C23.6135 10.9761 26.4396 12.314 28.5234 14.6954C30.6071 17.0768 31.7777 20.3067 31.7777 23.6745Z" fill="black"/>
</svg>
