<svg width="41" height="41" viewBox="0 0 41 41" fill="none" xmlns="http://www.w3.org/2000/svg">
<rect x="0.666626" y="0.5" width="40" height="40" rx="5" fill="white"/>
<rect x="0.666626" y="0.5" width="40" height="40" rx="5" fill="black"/>
<path d="M28.9999 12.4608C28.3865 12.8039 27.7252 13.0294 27.0401 13.1373C27.7412 12.6176 28.2829 11.7941 28.5378 10.8039C27.8766 11.2941 27.1436 11.6373 26.3709 11.8333C25.7415 10.9902 24.8572 10.5 23.8533 10.5C21.9811 10.5 20.4515 12.3824 20.4515 14.7059C20.4515 15.0392 20.4833 15.3627 20.5391 15.6667C17.7029 15.4902 15.1774 13.8137 13.4964 11.2745C13.2016 11.8922 13.0343 12.6176 13.0343 13.3824C13.0343 14.8431 13.6318 16.1373 14.556 16.8725C13.9904 16.8725 13.4645 16.6765 13.0025 16.3824V16.4118C13.0025 18.451 14.1816 20.1569 15.7431 20.5392C15.2418 20.7088 14.7154 20.7323 14.2055 20.6078C14.4218 21.4436 14.8456 22.1749 15.4172 22.699C15.9888 23.223 16.6795 23.5134 17.3922 23.5294C16.1842 24.7064 14.6867 25.3425 13.1459 25.3333C12.875 25.3333 12.6041 25.3137 12.3333 25.2745C13.847 26.4706 15.6475 27.1667 17.5754 27.1667C23.8533 27.1667 27.303 20.7549 27.303 15.1961C27.303 15.0098 27.303 14.8333 27.295 14.6471C27.9642 14.0588 28.5378 13.3137 28.9999 12.4608Z" fill="white"/>
<path d="M28.9999 12.4608C28.3865 12.8039 27.7252 13.0294 27.0401 13.1373C27.7412 12.6176 28.2829 11.7941 28.5378 10.8039C27.8766 11.2941 27.1436 11.6373 26.3709 11.8333C25.7415 10.9902 24.8572 10.5 23.8533 10.5C21.9811 10.5 20.4515 12.3824 20.4515 14.7059C20.4515 15.0392 20.4833 15.3627 20.5391 15.6667C17.7029 15.4902 15.1774 13.8137 13.4964 11.2745C13.2016 11.8922 13.0343 12.6176 13.0343 13.3824C13.0343 14.8431 13.6318 16.1373 14.556 16.8725C13.9904 16.8725 13.4645 16.6765 13.0025 16.3824V16.4118C13.0025 18.451 14.1816 20.1569 15.7431 20.5392C15.2418 20.7088 14.7154 20.7323 14.2055 20.6078C14.4218 21.4436 14.8456 22.1749 15.4172 22.699C15.9888 23.223 16.6795 23.5134 17.3922 23.5294C16.1842 24.7064 14.6867 25.3425 13.1459 25.3333C12.875 25.3333 12.6041 25.3137 12.3333 25.2745C13.847 26.4706 15.6475 27.1667 17.5754 27.1667C23.8533 27.1667 27.303 20.7549 27.303 15.1961C27.303 15.0098 27.303 14.8333 27.295 14.6471C27.9642 14.0588 28.5378 13.3137 28.9999 12.4608Z" fill="white"/>
</svg>
